<svg width="82" height="64" viewBox="0 0 82 64" fill="none" xmlns="http://www.w3.org/2000/svg">
<rect x="1" y="1" width="80" height="62" rx="11" stroke="#840000" stroke-width="2"/>
<path d="M31.5359 42.336C29.5759 42.336 27.8866 41.916 26.4679 41.076C25.0679 40.2173 23.9852 39.032 23.2199 37.52C22.4546 35.9893 22.0719 34.2253 22.0719 32.228C22.0719 30.212 22.4546 28.448 23.2199 26.936C23.9852 25.4053 25.0679 24.2107 26.4679 23.352C27.8866 22.4933 29.5759 22.064 31.5359 22.064C33.8319 22.064 35.7079 22.6333 37.1639 23.772C38.6386 24.892 39.5626 26.4693 39.9359 28.504H36.5479C36.2866 27.3653 35.7266 26.4693 34.8679 25.816C34.0279 25.1627 32.8986 24.836 31.4799 24.836C29.5572 24.836 28.0266 25.4987 26.8879 26.824C25.7679 28.1307 25.2079 29.932 25.2079 32.228C25.2079 34.524 25.7679 36.3253 26.8879 37.632C28.0266 38.9387 29.5572 39.592 31.4799 39.592C32.8986 39.592 34.0279 39.284 34.8679 38.668C35.7266 38.0333 36.2959 37.1187 36.5759 35.924H39.9639C39.5719 37.9587 38.6386 39.536 37.1639 40.656C35.7079 41.776 33.8319 42.336 31.5359 42.336ZM49.6252 42L42.3732 22.4H45.6772L51.4732 38.808L57.3252 22.4H60.5732L53.3212 42H49.6252Z" fill="#840000"/>
</svg>
