<svg width="217" height="64" viewBox="0 0 217 64" fill="none" xmlns="http://www.w3.org/2000/svg">
<rect x="0.999756" y="1.00049" width="215" height="62" rx="11" stroke="#840000" stroke-width="2"/>
<path d="M59.5678 42.0005V22.4005H72.0558V24.8925H62.6478V30.8565H71.2158V33.3205H62.6478V39.5085H72.0558V42.0005H59.5678ZM74.0455 42.0005L79.0015 35.0565L74.0455 28.1125H77.3495L81.0455 33.3765L84.6855 28.1125H87.9895L83.0335 35.0565L87.9895 42.0005H84.6855L81.0455 36.7365L77.3495 42.0005H74.0455ZM90.3249 48.1605V28.1125H93.4049V30.2405C93.8529 29.5872 94.4595 29.0178 95.2249 28.5325C96.0089 28.0285 97.0075 27.7765 98.2209 27.7765C99.5649 27.7765 100.75 28.0938 101.777 28.7285C102.804 29.3632 103.606 30.2312 104.185 31.3325C104.782 32.4338 105.081 33.6845 105.081 35.0845C105.081 36.4845 104.782 37.7352 104.185 38.8365C103.606 39.9192 102.804 40.7778 101.777 41.4125C100.75 42.0285 99.5649 42.3365 98.2209 42.3365C97.1382 42.3365 96.1769 42.1312 95.3369 41.7205C94.5155 41.2912 93.8715 40.6938 93.4049 39.9285V48.1605H90.3249ZM97.6609 39.6485C98.9115 39.6485 99.9382 39.2285 100.741 38.3885C101.544 37.5298 101.945 36.4285 101.945 35.0845C101.945 33.7218 101.544 32.6112 100.741 31.7525C99.9382 30.8938 98.9115 30.4645 97.6609 30.4645C96.4102 30.4645 95.3835 30.8938 94.5809 31.7525C93.7782 32.6112 93.3769 33.7125 93.3769 35.0565C93.3769 36.4192 93.7782 37.5298 94.5809 38.3885C95.3835 39.2285 96.4102 39.6485 97.6609 39.6485ZM107.779 42.0005V21.8405H110.859V42.0005H107.779ZM120.529 42.3365C119.203 42.3365 118.009 42.0378 116.945 41.4405C115.881 40.8245 115.031 39.9752 114.397 38.8925C113.781 37.7912 113.473 36.5125 113.473 35.0565C113.473 33.6005 113.781 32.3312 114.397 31.2485C115.031 30.1472 115.881 29.2978 116.945 28.7005C118.027 28.0845 119.222 27.7765 120.529 27.7765C121.854 27.7765 123.049 28.0845 124.113 28.7005C125.177 29.2978 126.017 30.1472 126.633 31.2485C127.267 32.3312 127.585 33.6005 127.585 35.0565C127.585 36.5125 127.267 37.7912 126.633 38.8925C126.017 39.9752 125.177 40.8245 124.113 41.4405C123.049 42.0378 121.854 42.3365 120.529 42.3365ZM120.529 39.6765C121.219 39.6765 121.854 39.5085 122.433 39.1725C123.03 38.8178 123.506 38.3045 123.861 37.6325C124.234 36.9418 124.421 36.0832 124.421 35.0565C124.421 34.0298 124.243 33.1805 123.889 32.5085C123.534 31.8178 123.058 31.3045 122.461 30.9685C121.863 30.6138 121.219 30.4365 120.529 30.4365C119.838 30.4365 119.194 30.6138 118.597 30.9685C118.018 31.3045 117.542 31.8178 117.169 32.5085C116.814 33.1805 116.637 34.0298 116.637 35.0565C116.637 36.0832 116.814 36.9418 117.169 37.6325C117.523 38.3045 117.999 38.8178 118.597 39.1725C119.194 39.5085 119.838 39.6765 120.529 39.6765ZM129.837 42.0005V28.1125H132.917V30.2405C133.253 29.5498 133.692 29.0085 134.233 28.6165C134.793 28.2058 135.456 28.0005 136.221 28.0005H138.153V30.7725H135.913C134.943 30.7725 134.196 31.1738 133.673 31.9765C133.169 32.7605 132.917 33.9925 132.917 35.6725V42.0005H129.837ZM146.452 42.3365C145.071 42.3365 143.848 42.0378 142.784 41.4405C141.739 40.8245 140.908 39.9752 140.292 38.8925C139.695 37.8098 139.396 36.5498 139.396 35.1125C139.396 33.6752 139.695 32.4058 140.292 31.3045C140.89 30.1845 141.72 29.3165 142.784 28.7005C143.848 28.0845 145.08 27.7765 146.48 27.7765C147.843 27.7765 149.028 28.0845 150.036 28.7005C151.063 29.2978 151.856 30.1005 152.416 31.1085C152.976 32.1165 153.256 33.2365 153.256 34.4685C153.256 34.6552 153.247 34.8605 153.228 35.0845C153.228 35.2898 153.219 35.5232 153.2 35.7845H142.448C142.523 37.0725 142.943 38.0618 143.708 38.7525C144.492 39.4432 145.407 39.7885 146.452 39.7885C147.255 39.7885 147.936 39.6018 148.496 39.2285C149.075 38.8552 149.495 38.3512 149.756 37.7165H152.864C152.472 39.0418 151.716 40.1432 150.596 41.0205C149.495 41.8978 148.114 42.3365 146.452 42.3365ZM146.452 30.2965C145.482 30.2965 144.623 30.5858 143.876 31.1645C143.13 31.7432 142.672 32.5925 142.504 33.7125H150.176C150.12 32.6672 149.738 31.8365 149.028 31.2205C148.338 30.6045 147.479 30.2965 146.452 30.2965Z" fill="#840000"/>
</svg>
