<svg width="217" height="64" viewBox="0 0 217 64" fill="none" xmlns="http://www.w3.org/2000/svg">
<rect x="1" y="1" width="215" height="62" rx="11" stroke="#840000" stroke-width="2"/>
<path d="M17.428 42V28.112H20.508V29.904C20.9747 29.2507 21.5627 28.7373 22.272 28.364C23 27.972 23.8307 27.776 24.764 27.776C26.948 27.776 28.4787 28.6347 29.356 30.352C29.86 29.5493 30.532 28.924 31.372 28.476C32.2307 28.0093 33.164 27.776 34.172 27.776C35.908 27.776 37.2613 28.308 38.232 29.372C39.2213 30.4173 39.716 31.976 39.716 34.048V42H36.664V34.356C36.664 31.724 35.6467 30.408 33.612 30.408C32.5853 30.408 31.7453 30.7907 31.092 31.556C30.4573 32.3213 30.14 33.4133 30.14 34.832V42H27.06V34.356C27.06 31.724 26.0333 30.408 23.98 30.408C22.972 30.408 22.1413 30.7907 21.488 31.556C20.8347 32.3213 20.508 33.4133 20.508 34.832V42H17.428ZM49.0796 42.336C47.7543 42.336 46.5596 42.0373 45.4956 41.44C44.4316 40.824 43.5823 39.9747 42.9476 38.892C42.3316 37.7907 42.0236 36.512 42.0236 35.056C42.0236 33.6 42.3316 32.3307 42.9476 31.248C43.5823 30.1467 44.4316 29.2973 45.4956 28.7C46.5783 28.084 47.7729 27.776 49.0796 27.776C50.4049 27.776 51.5996 28.084 52.6636 28.7C53.7276 29.2973 54.5676 30.1467 55.1836 31.248C55.8183 32.3307 56.1356 33.6 56.1356 35.056C56.1356 36.512 55.8183 37.7907 55.1836 38.892C54.5676 39.9747 53.7276 40.824 52.6636 41.44C51.5996 42.0373 50.4049 42.336 49.0796 42.336ZM49.0796 39.676C49.7703 39.676 50.4049 39.508 50.9836 39.172C51.5809 38.8173 52.0569 38.304 52.4116 37.632C52.7849 36.9413 52.9716 36.0827 52.9716 35.056C52.9716 34.0293 52.7943 33.18 52.4396 32.508C52.0849 31.8173 51.6089 31.304 51.0116 30.968C50.4143 30.6133 49.7703 30.436 49.0796 30.436C48.3889 30.436 47.7449 30.6133 47.1476 30.968C46.5689 31.304 46.0929 31.8173 45.7196 32.508C45.3649 33.18 45.1876 34.0293 45.1876 35.056C45.1876 36.0827 45.3649 36.9413 45.7196 37.632C46.0743 38.304 46.5503 38.8173 47.1476 39.172C47.7449 39.508 48.3889 39.676 49.0796 39.676ZM58.3883 42V28.112H61.4683V30.24C61.8043 29.5493 62.2429 29.008 62.7843 28.616C63.3443 28.2053 64.0069 28 64.7723 28H66.7043V30.772H64.4643C63.4936 30.772 62.7469 31.1733 62.2243 31.976C61.7203 32.76 61.4683 33.992 61.4683 35.672V42H58.3883ZM75.0034 42.336C73.6221 42.336 72.3994 42.0373 71.3354 41.44C70.2901 40.824 69.4594 39.9747 68.8434 38.892C68.2461 37.8093 67.9474 36.5493 67.9474 35.112C67.9474 33.6747 68.2461 32.4053 68.8434 31.304C69.4408 30.184 70.2714 29.316 71.3354 28.7C72.3994 28.084 73.6314 27.776 75.0314 27.776C76.3941 27.776 77.5794 28.084 78.5874 28.7C79.6141 29.2973 80.4074 30.1 80.9674 31.108C81.5274 32.116 81.8074 33.236 81.8074 34.468C81.8074 34.6547 81.7981 34.86 81.7794 35.084C81.7794 35.2893 81.7701 35.5227 81.7514 35.784H70.9994C71.0741 37.072 71.4941 38.0613 72.2594 38.752C73.0434 39.4427 73.9581 39.788 75.0034 39.788C75.8061 39.788 76.4874 39.6013 77.0474 39.228C77.6261 38.8547 78.0461 38.3507 78.3074 37.716H81.4154C81.0234 39.0413 80.2674 40.1427 79.1474 41.02C78.0461 41.8973 76.6648 42.336 75.0034 42.336ZM75.0034 30.296C74.0328 30.296 73.1741 30.5853 72.4274 31.164C71.6808 31.7427 71.2234 32.592 71.0554 33.712H78.7274C78.6714 32.6667 78.2888 31.836 77.5794 31.22C76.8888 30.604 76.0301 30.296 75.0034 30.296ZM92.7861 48.16V28.112H95.8661V30.24C96.3141 29.5867 96.9207 29.0173 97.6861 28.532C98.4701 28.028 99.4687 27.776 100.682 27.776C102.026 27.776 103.211 28.0933 104.238 28.728C105.265 29.3627 106.067 30.2307 106.646 31.332C107.243 32.4333 107.542 33.684 107.542 35.084C107.542 36.484 107.243 37.7347 106.646 38.836C106.067 39.9187 105.265 40.7773 104.238 41.412C103.211 42.028 102.026 42.336 100.682 42.336C99.5994 42.336 98.6381 42.1307 97.7981 41.72C96.9767 41.2907 96.3327 40.6933 95.8661 39.928V48.16H92.7861ZM100.122 39.648C101.373 39.648 102.399 39.228 103.202 38.388C104.005 37.5293 104.406 36.428 104.406 35.084C104.406 33.7213 104.005 32.6107 103.202 31.752C102.399 30.8933 101.373 30.464 100.122 30.464C98.8714 30.464 97.8447 30.8933 97.0421 31.752C96.2394 32.6107 95.8381 33.712 95.8381 35.056C95.8381 36.4187 96.2394 37.5293 97.0421 38.388C97.8447 39.228 98.8714 39.648 100.122 39.648ZM109.877 42V28.112H112.957V30.24C113.293 29.5493 113.731 29.008 114.273 28.616C114.833 28.2053 115.495 28 116.261 28H118.193V30.772H115.953C114.982 30.772 114.235 31.1733 113.713 31.976C113.209 32.76 112.957 33.992 112.957 35.672V42H109.877ZM126.408 42.336C125.082 42.336 123.888 42.0373 122.824 41.44C121.76 40.824 120.91 39.9747 120.276 38.892C119.66 37.7907 119.352 36.512 119.352 35.056C119.352 33.6 119.66 32.3307 120.276 31.248C120.91 30.1467 121.76 29.2973 122.824 28.7C123.906 28.084 125.101 27.776 126.408 27.776C127.733 27.776 128.928 28.084 129.992 28.7C131.056 29.2973 131.896 30.1467 132.512 31.248C133.146 32.3307 133.464 33.6 133.464 35.056C133.464 36.512 133.146 37.7907 132.512 38.892C131.896 39.9747 131.056 40.824 129.992 41.44C128.928 42.0373 127.733 42.336 126.408 42.336ZM126.408 39.676C127.098 39.676 127.733 39.508 128.312 39.172C128.909 38.8173 129.385 38.304 129.74 37.632C130.113 36.9413 130.3 36.0827 130.3 35.056C130.3 34.0293 130.122 33.18 129.768 32.508C129.413 31.8173 128.937 31.304 128.34 30.968C127.742 30.6133 127.098 30.436 126.408 30.436C125.717 30.436 125.073 30.6133 124.476 30.968C123.897 31.304 123.421 31.8173 123.048 32.508C122.693 33.18 122.516 34.0293 122.516 35.056C122.516 36.0827 122.693 36.9413 123.048 37.632C123.402 38.304 123.878 38.8173 124.476 39.172C125.073 39.508 125.717 39.676 126.408 39.676ZM133.644 48.16V45.528H135.016C135.67 45.528 136.09 45.4347 136.276 45.248C136.463 45.08 136.556 44.6787 136.556 44.044V28.112H139.636V44.184C139.636 45.7333 139.31 46.7787 138.656 47.32C138.003 47.88 136.986 48.16 135.604 48.16H133.644ZM136.416 25.648V22.316H139.72V25.648H136.416ZM149.761 42.336C148.38 42.336 147.157 42.0373 146.093 41.44C145.048 40.824 144.217 39.9747 143.601 38.892C143.004 37.8093 142.705 36.5493 142.705 35.112C142.705 33.6747 143.004 32.4053 143.601 31.304C144.199 30.184 145.029 29.316 146.093 28.7C147.157 28.084 148.389 27.776 149.789 27.776C151.152 27.776 152.337 28.084 153.345 28.7C154.372 29.2973 155.165 30.1 155.725 31.108C156.285 32.116 156.565 33.236 156.565 34.468C156.565 34.6547 156.556 34.86 156.537 35.084C156.537 35.2893 156.528 35.5227 156.509 35.784H145.757C145.832 37.072 146.252 38.0613 147.017 38.752C147.801 39.4427 148.716 39.788 149.761 39.788C150.564 39.788 151.245 39.6013 151.805 39.228C152.384 38.8547 152.804 38.3507 153.065 37.716H156.173C155.781 39.0413 155.025 40.1427 153.905 41.02C152.804 41.8973 151.423 42.336 149.761 42.336ZM149.761 30.296C148.791 30.296 147.932 30.5853 147.185 31.164C146.439 31.7427 145.981 32.592 145.813 33.712H153.485C153.429 32.6667 153.047 31.836 152.337 31.22C151.647 30.604 150.788 30.296 149.761 30.296ZM165.65 42.336C164.269 42.336 163.037 42.028 161.954 41.412C160.89 40.796 160.05 39.9467 159.434 38.864C158.818 37.7627 158.51 36.4933 158.51 35.056C158.51 33.6187 158.818 32.3587 159.434 31.276C160.05 30.1747 160.89 29.316 161.954 28.7C163.037 28.084 164.269 27.776 165.65 27.776C167.367 27.776 168.814 28.224 169.99 29.12C171.166 30.016 171.913 31.2387 172.23 32.788H169.038C168.851 32.0413 168.441 31.4627 167.806 31.052C167.19 30.6227 166.462 30.408 165.622 30.408C164.913 30.408 164.259 30.5947 163.662 30.968C163.065 31.3227 162.579 31.8453 162.206 32.536C161.851 33.2267 161.674 34.0667 161.674 35.056C161.674 36.0453 161.851 36.8947 162.206 37.604C162.579 38.2947 163.065 38.8173 163.662 39.172C164.259 39.5267 164.913 39.704 165.622 39.704C166.462 39.704 167.19 39.4987 167.806 39.088C168.441 38.6773 168.851 38.0893 169.038 37.324H172.23C171.931 38.8173 171.185 40.0307 169.99 40.964C168.814 41.8787 167.367 42.336 165.65 42.336ZM180.208 42C179.349 42 178.621 41.8973 178.024 41.692C177.445 41.4867 177.006 41.0947 176.708 40.516C176.409 39.9373 176.26 39.0973 176.26 37.996V30.716H173.852V28.112H176.26V24.556H179.34V28.112H182.84V30.716H179.34V37.576C179.34 38.1173 179.386 38.5187 179.48 38.78C179.573 39.0227 179.75 39.1813 180.012 39.256C180.292 39.3307 180.693 39.368 181.216 39.368H182.7V42H180.208ZM191.251 42.336C189.477 42.336 188.012 41.9253 186.855 41.104C185.697 40.2827 185.035 39.1253 184.867 37.632H188.031C188.161 38.3413 188.525 38.9013 189.123 39.312C189.72 39.704 190.467 39.9 191.363 39.9C192.24 39.9 192.912 39.7227 193.379 39.368C193.864 39.0133 194.107 38.5747 194.107 38.052C194.107 37.6787 193.995 37.3987 193.771 37.212C193.565 37.0067 193.295 36.8667 192.959 36.792C192.623 36.6987 192.287 36.6147 191.951 36.54C191.633 36.5027 191.26 36.4467 190.831 36.372C190.401 36.2787 190.028 36.204 189.711 36.148C189.001 36.0173 188.329 35.7933 187.695 35.476C187.079 35.1587 186.575 34.7293 186.183 34.188C185.791 33.628 185.595 32.928 185.595 32.088C185.595 30.8747 186.052 29.8573 186.967 29.036C187.881 28.196 189.179 27.776 190.859 27.776C192.501 27.776 193.836 28.1493 194.863 28.896C195.889 29.624 196.477 30.716 196.627 32.172H193.603C193.528 31.5 193.229 31.0053 192.707 30.688C192.203 30.3707 191.587 30.212 190.859 30.212C190.093 30.212 189.487 30.3707 189.039 30.688C188.591 31.0053 188.367 31.3973 188.367 31.864C188.367 32.7227 189.048 33.2733 190.411 33.516C190.691 33.572 191.064 33.6373 191.531 33.712C191.997 33.7867 192.389 33.852 192.707 33.908C193.36 34.0013 194.013 34.1693 194.667 34.412C195.339 34.6547 195.899 35.0467 196.347 35.588C196.795 36.1107 197.019 36.8387 197.019 37.772C197.019 39.116 196.505 40.2173 195.479 41.076C194.471 41.916 193.061 42.336 191.251 42.336Z" fill="#840000"/>
</svg>
